<?xml version="1.0" encoding="UTF-8"?><svg id="Layer_1" xmlns="http://www.w3.org/2000/svg" xmlns:xlink="http://www.w3.org/1999/xlink" viewBox="0 0 1024 1024"><defs><style>.cls-1{fill:url(#linear-gradient);}.cls-2{fill:#fff;}</style><linearGradient id="linear-gradient" x1="66.43" y1="66.43" x2="957.57" y2="957.57" gradientUnits="userSpaceOnUse"><stop offset="0" stop-color="#851537"/><stop offset=".14" stop-color="#741534"/><stop offset=".52" stop-color="#4d1530"/><stop offset=".82" stop-color="#34152d"/><stop offset="1" stop-color="#2c152c"/></linearGradient></defs><path class="cls-1" d="M226.79,0h570.41c125.17,0,226.79,101.62,226.79,226.79v570.41c0,125.17-101.62,226.79-226.79,226.79H226.79c-125.17,0-226.79-101.62-226.79-226.79V226.79C0,101.62,101.62,0,226.79,0Z"/><polygon class="cls-2" points="205.96 332.58 487.89 511.46 487.89 365.42 205.96 186.54 205.96 332.58"/><polygon class="cls-2" points="818.04 332.58 536.11 511.46 536.11 365.42 818.04 186.54 818.04 332.58"/><polygon class="cls-2" points="818.04 691.42 536.11 512.54 536.11 658.58 818.04 837.46 818.04 691.42"/><polygon class="cls-2" points="205.96 691.42 487.89 512.54 487.89 658.58 205.96 837.46 205.96 691.42"/></svg>