<?xml version="1.0" encoding="UTF-8"?><svg id="Layer_1" xmlns="http://www.w3.org/2000/svg" viewBox="0 0 1024 1024"><defs><style>.cls-1{fill:#fff;}.cls-2{fill:#851537;}</style></defs><path class="cls-1" d="M226.79,0h570.41C922.38,0,1024,101.62,1024,226.79v570.41c0,125.17-101.62,226.79-226.79,226.79H226.79C101.62,1024,0,922.38,0,797.21V226.79C0,101.62,101.62,0,226.79,0Z"/><polygon class="cls-2" points="205.96 332.58 487.89 511.46 487.89 365.42 205.96 186.54 205.96 332.58"/><polygon class="cls-2" points="818.04 332.58 536.11 511.46 536.11 365.42 818.04 186.54 818.04 332.58"/><polygon class="cls-2" points="818.04 691.42 536.11 512.54 536.11 658.58 818.04 837.46 818.04 691.42"/><polygon class="cls-2" points="205.96 691.42 487.89 512.54 487.89 658.58 205.96 837.46 205.96 691.42"/></svg>