<svg width="303" height="116" viewBox="0 0 303 116" fill="none" xmlns="http://www.w3.org/2000/svg">
<path d="M45 35C52.1797 35 58 29.1797 58 22C58 14.8203 52.1797 9 45 9C37.8203 9 32 14.8203 32 22C32 29.1797 37.8203 35 45 35Z" fill="#F0F0F0"/>
<path d="M242.5 76C247.747 76 252 71.7467 252 66.5C252 61.2533 247.747 57 242.5 57C237.253 57 233 61.2533 233 66.5C233 71.7467 237.253 76 242.5 76Z" fill="#F0F0F0"/>
<path d="M148 137C155.732 137 162 130.732 162 123C162 115.268 155.732 109 148 109C140.268 109 134 115.268 134 123C134 130.732 140.268 137 148 137Z" fill="#F0F0F0"/>
<path d="M68.1228 59.5353C67.9762 59.6861 67.8416 59.8483 67.7205 60.0203L48.8747 59.559L46.6762 55.54L40.1794 58.0666L43.3804 65.5598C43.639 66.1652 44.0869 66.6703 44.6568 66.9993C45.2268 67.3283 45.8881 67.4635 46.5414 67.3846L67.8336 64.8114C68.3358 65.4475 69.0198 65.9155 69.7944 66.1533C70.5691 66.391 71.3977 66.3872 72.1701 66.1423C72.9425 65.8975 73.6221 65.4231 74.1185 64.7824C74.6149 64.1418 74.9045 63.3651 74.9489 62.5557C74.9932 61.7463 74.7902 60.9426 74.3668 60.2515C73.9435 59.5604 73.3198 59.0145 72.5788 58.6866C71.8378 58.3587 71.0145 58.2643 70.2185 58.4159C69.4225 58.5675 68.6915 58.9579 68.1228 59.5353Z" fill="#FFD2D2"/>
<path d="M36.8083 64.715L37.2563 71.979L24.1586 73.3814L10.4532 74.8485L14.487 63.8184L36.8083 64.715Z" fill="#FFD2D2"/>
<path d="M37.2684 67.3212C37.1199 67.2629 22.3258 61.506 13.2387 66.2133L13.0152 66.3291L11.2024 57.4027L10.1694 38.2113L16.891 35.034L18.7417 30.8869L31.3473 30.1406L33.9377 33.6945L42.7572 36.586L37.4861 67.4074L37.2684 67.3212Z" fill="white"/>
<path d="M37.7317 49.9989L39.2909 37.7431L42.8411 36.6621L42.901 36.6842C42.9829 36.7143 44.9124 37.4531 45.4405 40.1254C45.9475 42.6903 49.7656 58.6519 49.8041 58.8129L49.8424 58.9725L40.8715 62.5632L37.7317 49.9989Z" fill="white"/>
<path d="M58.3406 169.691L70.2822 167.241L51.1961 114.555L44.6639 96.5843C44.6639 96.5843 40.5209 82.1757 38.649 76.5998L37.5194 69.1182L10.7783 72.0792C10.7783 72.0792 3.30964 83.052 5.57858 100.937L4.55237 168.16L16.494 168.772L26.4963 100.975L44.0515 138.141C44.0515 138.141 49.5847 154.001 53.5436 157.439L58.3406 169.691Z" fill="#2F2E41"/>
<path d="M21.5021 74.5744C21.2918 74.5694 21.0814 74.581 20.873 74.6091L8.39772 60.4706L9.8489 56.1252L3.57975 53.0771L0.263436 60.52C-0.0044765 61.1213 -0.0701906 61.7933 0.0761608 62.4351C0.222512 63.077 0.57303 63.654 1.07509 64.0795L17.4379 77.9496C17.3132 78.7505 17.4351 79.5704 17.7875 80.3003C18.1399 81.0302 18.7061 81.6355 19.4108 82.0357C20.1155 82.4358 20.9252 82.6118 21.7324 82.5403C22.5395 82.4689 23.3057 82.1533 23.9291 81.6355C24.5526 81.1177 25.0037 80.4224 25.2225 79.6419C25.4412 78.8614 25.4172 78.0328 25.1538 77.2662C24.8903 76.4997 24.3998 75.8316 23.7475 75.3507C23.0952 74.8699 22.312 74.5991 21.5021 74.5744Z" fill="#FFD2D2"/>
<path d="M2.45032 55.1724L7.32741 41.2752C7.87551 39.637 8.56234 38.6418 9.36888 38.317C9.52775 38.2455 9.69973 38.2077 9.87393 38.2061C10.0481 38.2045 10.2208 38.239 10.381 38.3075L12.5679 41.0715L14.5976 49.6014L9.39355 61.8472L2.45032 55.1724Z" fill="white"/>
<path d="M68.7918 42.6739C68.1942 42.7341 67.5929 42.7481 66.9932 42.7158C66.891 42.7047 66.7884 42.7341 66.7077 42.7978C66.6269 42.8615 66.5744 42.9544 66.5614 43.0564L65.4142 51.6654C65.3259 52.2903 65.0702 52.8796 64.674 53.3709C64.3475 53.7618 64.1047 54.2157 63.9608 54.7043C63.817 55.193 63.775 55.7061 63.8377 56.2117V70.8355C63.8377 70.8355 63.7637 72.7853 65.2612 72.7853C67.0536 73.0106 68.8671 73.0106 70.6595 72.7853C70.6595 72.7853 71.8585 72.5583 71.8585 70.759V56.3598C71.95 55.8574 71.9312 55.3411 71.8034 54.8468C71.6756 54.3524 71.4418 53.8917 71.1184 53.4967C70.7355 53.0037 70.488 52.4192 70.4004 51.8011L69.2088 43.012C69.1952 42.9132 69.1446 42.8232 69.0671 42.7604C68.9897 42.6976 68.8912 42.6667 68.7918 42.6739Z" fill="white"/>
<path d="M67.9551 73.2014C67.0493 73.2014 66.1442 73.1451 65.2454 73.0328C65.0445 73.0375 64.8449 73.0007 64.6589 72.9246C64.473 72.8484 64.3048 72.7346 64.1649 72.5904C63.5555 71.9572 63.5894 70.8727 63.5912 70.8268L63.591 56.2274C63.5274 55.6906 63.5739 55.1465 63.7275 54.6283C63.8812 54.1101 64.1388 53.6286 64.4847 53.2133C64.8514 52.7575 65.0882 52.211 65.1699 51.6316L66.3169 43.0245C66.3393 42.859 66.4252 42.7086 66.5564 42.6053C66.6877 42.502 66.8539 42.4539 67.02 42.4712C67.6026 42.502 68.1867 42.4879 68.7671 42.429L68.774 42.4284C68.936 42.4167 69.0964 42.4671 69.2225 42.5694C69.3487 42.6717 69.4312 42.8182 69.4532 42.9792L70.645 51.7687C70.7269 52.3436 70.9572 52.8872 71.3132 53.3459C71.6561 53.7651 71.9044 54.2534 72.0411 54.7775C72.1778 55.3016 72.1997 55.8491 72.1053 56.3824V70.7596C72.1053 72.7404 70.7194 73.0259 70.7054 73.0286C69.7931 73.1436 68.8746 73.2013 67.9551 73.2014ZM66.9597 42.962C66.923 42.9602 66.887 42.9722 66.8586 42.9955C66.8302 43.0188 66.8116 43.0519 66.8062 43.0883L65.6588 51.6987C65.5644 52.3684 65.2905 53.0001 64.8661 53.5266C64.561 53.8921 64.3341 54.3164 64.1994 54.7731C64.0646 55.2298 64.0248 55.7093 64.0826 56.182L64.0844 56.2124V70.8362C64.0839 70.8544 64.0578 71.7688 64.5216 72.2492C64.6175 72.3469 64.733 72.4232 64.8605 72.4732C64.988 72.5232 65.1245 72.5457 65.2613 72.5393L65.2921 72.5412C67.064 72.7637 68.8568 72.7637 70.6287 72.5412C70.6521 72.5354 71.6119 72.3165 71.6119 70.7596L71.6158 56.3163C71.7012 55.8491 71.6839 55.3689 71.5651 54.9091C71.4462 54.4494 71.2286 54.021 70.9275 53.6538C70.5165 53.1256 70.2506 52.4991 70.1563 51.8365L68.9643 43.0458C68.9591 43.0098 68.9406 42.977 68.9125 42.9538C68.8844 42.9307 68.8486 42.9188 68.8123 42.9206C68.2035 42.9816 67.591 42.9957 66.98 42.9631C66.9733 42.9623 66.9665 42.962 66.9597 42.962Z" fill="#3F3D56"/>
<path d="M66.9809 56.4736H68.7992C69.1572 56.4736 69.5117 56.5442 69.8425 56.6812C70.1733 56.8183 70.4738 57.0192 70.727 57.2724C70.9801 57.5257 71.1809 57.8264 71.3179 58.1572C71.4549 58.4881 71.5255 58.8428 71.5255 59.2009V66.0451C71.5255 66.4033 71.4549 66.7579 71.3179 67.0888C71.1809 67.4197 70.9801 67.7204 70.727 67.9736C70.4738 68.2269 70.1733 68.4278 69.8425 68.5648C69.5117 68.7019 69.1572 68.7724 68.7992 68.7724H66.9809C66.6229 68.7724 66.2684 68.7019 65.9376 68.5648C65.6068 68.4278 65.3063 68.2269 65.0531 67.9736C64.8 67.7204 64.5992 67.4197 64.4622 67.0888C64.3252 66.7579 64.2546 66.4033 64.2546 66.0451V59.2009C64.2546 58.4776 64.5419 57.7839 65.0531 57.2724C65.5644 56.761 66.2578 56.4736 66.9809 56.4736Z" fill="#7E171B"/>
<path d="M34.732 27.2651H13.3217C12.8813 27.2646 12.459 27.0893 12.1476 26.7778C11.8362 26.4663 11.661 26.0439 11.6605 25.6033V16.3711C11.6605 13.0901 12.9634 9.94345 15.2825 7.62341C17.6017 5.30338 20.7471 4 24.0269 4C27.3066 4 30.452 5.30338 32.7712 7.62341C35.0903 9.94345 36.3932 13.0901 36.3932 16.3711V25.6033C36.3927 26.0439 36.2175 26.4663 35.9061 26.7778C35.5947 27.0893 35.1724 27.2646 34.732 27.2651Z" fill="#2F2E41"/>
<path d="M26.5679 27.0503C31.5752 27.0503 35.6345 22.9895 35.6345 17.9802C35.6345 12.971 31.5752 8.91016 26.5679 8.91016C21.5606 8.91016 17.5013 12.971 17.5013 17.9802C17.5013 22.9895 21.5606 27.0503 26.5679 27.0503Z" fill="#FFD2D2"/>
<path d="M39.3187 17.294H26.2268L26.0925 15.4137L25.4213 17.294H23.4054L23.1394 13.5672L21.8089 17.294H17.9083V17.1094C17.9112 14.5148 18.9428 12.0274 20.7767 10.1928C22.6106 8.35816 25.097 7.32618 27.6906 7.32324H29.5364C32.1299 7.32617 34.6164 8.35815 36.4503 10.1928C38.2842 12.0274 39.3158 14.5148 39.3187 17.1094L39.3187 17.294Z" fill="#2F2E41"/>
<path d="M26.1196 28.9887C26.0211 28.9886 25.9227 28.9799 25.8256 28.9628L16.2391 27.2707V11.4209H26.792L26.5307 11.7256C22.8957 15.9667 25.6343 22.8436 27.5902 26.5653C27.7344 26.8379 27.7987 27.1456 27.7757 27.4531C27.7527 27.7607 27.6433 28.0554 27.4602 28.3035C27.3068 28.5157 27.1054 28.6884 26.8723 28.8075C26.6393 28.9266 26.3813 28.9887 26.1196 28.9887Z" fill="#2F2E41"/>
<path d="M242.642 91.5421C243.077 91.2489 243.443 90.8639 243.713 90.4142C243.983 89.9644 244.151 89.4609 244.206 88.939C244.261 88.4171 244.2 87.8896 244.029 87.3936C243.858 86.8976 243.58 86.4452 243.215 86.0682L248.961 74.6816L242.38 75.4454L237.932 86.1411C237.34 86.7963 237.008 87.6461 237 88.5296C236.992 89.413 237.308 90.2686 237.889 90.9344C238.47 91.6001 239.274 92.0297 240.15 92.1417C241.026 92.2537 241.913 92.0403 242.642 91.5421Z" fill="#FFD2D2"/>
<path d="M260 87.8018L254.931 99.4837L250.75 166.63L261.31 166.208L264.194 134.199L273.092 105.69L278.206 137.472L280.319 165.362L289.056 165.741L292.538 87.8018H260Z" fill="#2F2E41"/>
<path d="M285.338 30.1572L270.647 30.5249L262.021 34.9544L261.548 67.6348L256.169 90.1979C256.169 90.1979 289.78 92.512 294.426 89.1315L288.935 63.3548L296.3 35.4976L285.338 30.1572Z" fill="#7E171B"/>
<path d="M264.29 35.4962L262.922 34.5723C262.922 34.5723 257.256 36.2711 255.582 43.8291C255.582 43.8291 254.3 47.6211 253.738 50.2281C253.093 53.2184 238.852 80.6853 238.852 80.6853L247.378 83.1323L263.01 57.8422L264.29 35.4962Z" fill="#7E171B"/>
<path d="M296.07 95.7322C295.732 95.3305 295.487 94.8595 295.351 94.3527C295.216 93.8458 295.193 93.3154 295.284 92.7986C295.375 92.2819 295.579 91.7915 295.88 91.362C296.181 90.9324 296.573 90.5742 297.028 90.3125L294.643 77.7822L300.759 80.332L302.086 91.84C302.475 92.6332 302.559 93.5416 302.323 94.393C302.088 95.2444 301.548 95.9796 300.806 96.4594C300.064 96.9392 299.173 97.1301 298.3 96.9961C297.427 96.8621 296.633 96.4124 296.07 95.7322Z" fill="#FFD2D2"/>
<path d="M294.089 35.8878L295.659 35.377C295.659 35.377 300.637 38.573 300.163 46.2999C300.163 46.2999 300.35 50.2984 300.172 52.9594C299.967 56.0117 302.706 86.3423 302.706 86.3423H293.835L290.034 58.8754L294.089 35.8878Z" fill="#7E171B"/>
<path d="M288.944 16.446C288.944 18.461 288.347 20.4307 287.228 22.1062C286.109 23.7816 284.518 25.0874 282.657 25.8586C280.796 26.6297 278.749 26.8314 276.773 26.4383C274.798 26.0452 272.983 25.0749 271.559 23.65C270.135 22.2252 269.165 20.4099 268.772 18.4336C268.379 16.4573 268.58 14.4088 269.351 12.5471C270.122 10.6855 271.427 9.09434 273.102 7.97486C274.777 6.85537 276.746 6.25785 278.76 6.25784C281.454 6.25112 284.041 7.31538 285.951 9.2165C287.861 11.1176 288.938 13.6999 288.944 16.3952C288.944 16.4121 288.944 16.429 288.944 16.446Z" fill="#FFD2D2"/>
<path d="M268.61 2.76187C269.803 0.195482 272.112 0.702877 274.131 1.57282C276.688 1.00544 279.119 -0.693247 281.874 0.311347C284.588 4.25987 293.699 3.09815 291.761 9.52637C291.758 11.0667 294.658 10.1701 294.152 12.6929C295.688 17.5478 288.607 26.7423 284.542 24.8061C285.547 22.9629 287.844 18.7763 284.361 18.361C276.868 25.3358 283.588 5.07954 274.173 10.9704C271.055 13.8243 266.788 5.61655 268.61 2.76187Z" fill="#2F2E41"/>
<path d="M246.57 68.0733C245.99 68.1317 245.407 68.1453 244.826 68.114C244.726 68.1031 244.627 68.1317 244.549 68.1935C244.47 68.2552 244.419 68.3453 244.407 68.4443L243.294 76.7943C243.208 77.4004 242.96 77.972 242.576 78.4485C242.259 78.8276 242.024 79.2679 241.884 79.7419C241.745 80.2159 241.704 80.7135 241.765 81.2039V95.3878C241.765 95.3878 241.693 97.279 243.146 97.279C244.884 97.4975 246.643 97.4975 248.382 97.279C248.382 97.279 249.545 97.0588 249.545 95.3136V81.3475C249.633 80.8603 249.615 80.3595 249.491 79.88C249.367 79.4005 249.14 78.9537 248.827 78.5706C248.455 78.0924 248.215 77.5255 248.13 76.926L246.974 68.4012C246.961 68.3054 246.912 68.2181 246.837 68.1572C246.762 68.0963 246.666 68.0663 246.57 68.0733Z" fill="white"/>
<path d="M245.758 97.682C244.88 97.682 244.002 97.6274 243.13 97.5185C242.935 97.5231 242.742 97.4873 242.561 97.4135C242.381 97.3396 242.218 97.2293 242.082 97.0894C241.491 96.4752 241.524 95.4233 241.526 95.3788L241.526 81.2186C241.464 80.6979 241.509 80.1702 241.658 79.6675C241.807 79.1649 242.057 78.6979 242.392 78.2951C242.748 77.853 242.978 77.3229 243.057 76.761L244.17 68.4128C244.191 68.2522 244.275 68.1064 244.402 68.0062C244.529 67.906 244.69 67.8594 244.851 67.8761C245.417 67.906 245.983 67.8923 246.546 67.8352L246.553 67.8346C246.71 67.8232 246.865 67.8721 246.988 67.9713C247.11 68.0706 247.19 68.2127 247.211 68.3688L248.367 76.894C248.447 77.4516 248.67 77.9789 249.016 78.4237C249.348 78.8303 249.589 79.304 249.722 79.8123C249.854 80.3206 249.875 80.8516 249.784 81.3689V95.3137C249.784 97.2349 248.44 97.5118 248.426 97.5144C247.541 97.6259 246.65 97.6819 245.758 97.682ZM244.793 68.3521C244.757 68.3504 244.722 68.362 244.695 68.3846C244.667 68.4073 244.649 68.4393 244.644 68.4746L243.531 76.8261C243.44 77.4757 243.174 78.0883 242.762 78.5989C242.466 78.9535 242.246 79.365 242.116 79.808C241.985 80.251 241.946 80.716 242.002 81.1745L242.004 81.204V95.3879C242.004 95.4055 241.978 96.2925 242.428 96.7584C242.521 96.8532 242.633 96.9272 242.757 96.9757C242.881 97.0242 243.013 97.046 243.146 97.0398L243.176 97.0417C244.894 97.2574 246.633 97.2574 248.352 97.0417C248.374 97.036 249.305 96.8237 249.305 95.3137L249.309 81.3047C249.392 80.8516 249.375 80.3859 249.26 79.9399C249.145 79.494 248.934 79.0785 248.641 78.7224C248.243 78.2101 247.985 77.6024 247.893 76.9597L246.737 68.4335C246.732 68.3985 246.714 68.3667 246.687 68.3442C246.66 68.3218 246.625 68.3103 246.59 68.312C245.999 68.3711 245.405 68.3849 244.813 68.3532C244.806 68.3525 244.8 68.3521 244.793 68.3521Z" fill="#3F3D56"/>
<path d="M244.814 81.458H246.577C246.924 81.458 247.268 81.5264 247.589 81.6594C247.91 81.7923 248.201 81.9872 248.447 82.2328C248.692 82.4784 248.887 82.7701 249.02 83.091C249.153 83.4119 249.221 83.7559 249.221 84.1033V90.7416C249.221 91.4432 248.943 92.116 248.447 92.6121C247.951 93.1082 247.278 93.3869 246.577 93.3869H244.814C244.466 93.3869 244.122 93.3185 243.802 93.1855C243.481 93.0526 243.189 92.8577 242.944 92.6121C242.698 92.3665 242.503 92.0748 242.371 91.7539C242.238 91.433 242.169 91.089 242.169 90.7416V84.1033C242.169 83.4017 242.448 82.7289 242.944 82.2328C243.44 81.7367 244.112 81.458 244.814 81.458Z" fill="#7E171B"/>
</svg>
