<svg width="360" height="120" viewBox="0 0 360 120" fill="none" xmlns="http://www.w3.org/2000/svg">
<g clip-path="url(#clip0_918_26636)">
<path d="M37.7697 78.9876C46.177 78.9876 52.9925 71.5019 52.9925 62.2678C52.9925 53.0338 46.177 45.5481 37.7697 45.5481C29.3624 45.5481 22.5469 53.0338 22.5469 62.2678C22.5469 71.5019 29.3624 78.9876 37.7697 78.9876Z" fill="#E6E6E6"/>
<path d="M33.6568 86.6831L37.4013 89.2317V72.0043L33.2041 69.1476C32.8571 68.9115 32.6035 68.5407 32.4937 68.1089C32.8946 68.0248 33.3098 68.1092 33.6568 68.3453L37.4014 70.8939V64.2137C37.4014 62.9213 37.5457 61.6339 37.831 60.3801C38.1164 61.6339 38.2607 62.9213 38.2607 64.2137V75.1171L43.7851 71.3572C44.2262 71.057 44.7365 70.9024 45.2554 70.9117C45.0321 71.4262 44.6788 71.8593 44.2377 72.1595L38.2607 76.2275V116.969H37.4013V90.3421L33.2041 87.4854C32.8571 87.2493 32.6035 86.8785 32.4937 86.4467C32.8946 86.3626 33.3097 86.447 33.6568 86.6831Z" fill="#CCCCCC"/>
<path d="M15.2228 80.4073C23.6301 80.4073 30.4456 72.9216 30.4456 63.6875C30.4456 54.4535 23.6301 46.9678 15.2228 46.9678C6.81548 46.9678 0 54.4535 0 63.6875C0 72.9216 6.81548 80.4073 15.2228 80.4073Z" fill="#E6E6E6"/>
<path d="M19.3355 88.1028L15.5909 90.6514V73.424L19.7881 70.5673C20.1351 70.3312 20.3887 69.9604 20.4986 69.5286C20.0976 69.4445 19.6825 69.5289 19.3354 69.765L15.5908 72.3136V65.6333C15.5908 64.341 15.4465 63.0535 15.1612 61.7998C14.8758 63.0535 14.7315 64.341 14.7315 65.6333V76.5368L9.20718 72.7769C8.76607 72.4767 8.25569 72.322 7.73682 72.3314C7.96016 72.8459 8.31342 73.279 8.75453 73.5792L14.7315 77.6472V117.059H15.5909V91.7618L19.7881 88.9051C20.1351 88.669 20.3887 88.2982 20.4986 87.8664C20.0976 87.7823 19.6825 87.8667 19.3355 88.1028Z" fill="#CCCCCC"/>
<path d="M26.2811 57.5744C40.7564 57.5744 52.4909 44.6859 52.4909 28.7872C52.4909 12.8885 40.7564 0 26.2811 0C11.8058 0 0.0712891 12.8885 0.0712891 28.7872C0.0712891 44.6859 11.8058 57.5744 26.2811 57.5744Z" fill="#E6E6E6"/>
<path d="M33.362 70.8242L26.9148 75.2123V45.551L34.1414 40.6326C34.7388 40.2259 35.1754 39.5876 35.3646 38.8441C34.6742 38.6993 33.9595 38.8446 33.362 39.2512L26.9148 43.6392V32.1375C26.9148 29.9124 26.6663 27.6957 26.175 25.5371C25.6836 27.6957 25.4352 29.9124 25.4352 32.1375V50.9105L15.9237 44.4369C15.1642 43.92 14.2855 43.6537 13.3921 43.6698C13.7766 44.5556 14.3849 45.3014 15.1443 45.8183L25.4352 52.8223V117.122H26.9148V77.1241L34.1414 72.2056C34.7388 71.799 35.1754 71.1607 35.3646 70.4172C34.6742 70.2723 33.9595 70.4176 33.362 70.8242Z" fill="#CCCCCC"/>
<path d="M134.177 116.969H10.4531V117.313H134.177V116.969Z" fill="#3F3D56"/>
<path d="M102.313 51.9367L96.1729 55.8306L99.7181 62.575L105.859 58.6811L102.313 51.9367Z" fill="#FF6584"/>
<path d="M102.391 63.9807L98.6895 56.9382L105.101 52.8723L108.803 59.9149L102.391 63.9807ZM99.1174 57.0642L102.506 63.5107L108.375 59.7889L104.987 53.3423L99.1174 57.0642Z" fill="#2F2E41"/>
<path d="M96.647 82.9049C98.2904 82.9049 99.6227 81.4417 99.6227 79.6367C99.6227 77.8317 98.2904 76.3684 96.647 76.3684C95.0036 76.3684 93.6714 77.8317 93.6714 79.6367C93.6714 81.4417 95.0036 82.9049 96.647 82.9049Z" fill="#D0CDE1"/>
<path d="M98.8393 83.0768C98.2198 83.0768 97.6142 82.8751 97.0991 82.497C96.584 82.119 96.1825 81.5817 95.9455 80.9531C95.7084 80.3245 95.6464 79.6327 95.7672 78.9654C95.8881 78.2981 96.1864 77.685 96.6244 77.2039C97.0625 76.7228 97.6206 76.3951 98.2282 76.2624C98.8358 76.1297 99.4656 76.1978 100.038 76.4582C100.61 76.7186 101.099 77.1595 101.444 77.7253C101.788 78.291 101.972 78.9561 101.972 79.6366C101.972 80.549 101.642 81.424 101.054 82.0692C100.467 82.7144 99.67 83.0768 98.8393 83.0768ZM98.8393 76.5403C98.2817 76.5403 97.7367 76.7219 97.2731 77.0621C96.8095 77.4024 96.4482 77.8859 96.2348 78.4517C96.0215 79.0174 95.9656 79.64 96.0744 80.2406C96.1832 80.8412 96.4517 81.3929 96.8459 81.8259C97.2402 82.2589 97.7425 82.5538 98.2893 82.6733C98.8362 82.7928 99.403 82.7315 99.9181 82.4971C100.433 82.2628 100.873 81.8659 101.183 81.3567C101.493 80.8476 101.658 80.2489 101.658 79.6366C101.658 78.8154 101.361 78.0278 100.833 77.4472C100.304 76.8665 99.5869 76.5403 98.8393 76.5403Z" fill="#2F2E41"/>
<path d="M115.419 117.751H86.6022C86.2493 117.751 85.9109 117.597 85.6614 117.323C85.4118 117.048 85.2714 116.677 85.271 116.289V86.875C85.2714 86.4873 85.4118 86.1157 85.6614 85.8416C85.9109 85.5675 86.2493 85.4133 86.6022 85.4128H115.419C115.772 85.4133 116.11 85.5675 116.36 85.8416C116.609 86.1157 116.75 86.4873 116.75 86.875V116.289C116.75 116.677 116.609 117.048 116.36 117.323C116.11 117.597 115.772 117.751 115.419 117.751Z" fill="#7E171B"/>
<path d="M103.046 118.784H98.9743C98.6213 118.784 98.283 118.629 98.0334 118.355C97.7839 118.081 97.6435 117.71 97.6431 117.322V86.0012C97.6435 85.6135 97.7839 85.2419 98.0334 84.9678C98.283 84.6937 98.6213 84.5395 98.9743 84.5391H103.046C103.399 84.5395 103.737 84.6937 103.987 84.9678C104.237 85.2419 104.377 85.6135 104.377 86.0012V117.322C104.377 117.71 104.237 118.081 103.987 118.355C103.737 118.629 103.399 118.784 103.046 118.784Z" fill="#3F3D56"/>
<path d="M123.075 82.5012C122.907 85.5356 119.175 87.7548 119.175 87.7548C119.175 87.7548 115.716 85.0543 115.884 82.0199C116.053 78.9856 119.785 76.7664 119.785 76.7664C119.785 76.7664 123.244 79.4669 123.075 82.5012Z" fill="#3F3D56"/>
<path d="M123.244 91.9688C120.481 91.7933 118.449 87.7014 118.449 87.7014C118.449 87.7014 120.897 83.8939 123.66 84.0694C126.423 84.2448 128.455 88.3367 128.455 88.3367C128.455 88.3367 126.007 92.1442 123.244 91.9688Z" fill="#3F3D56"/>
<path opacity="0.1" d="M116.672 89.0115V100.241L106.503 85.499H114.249L116.672 89.0115Z" fill="black"/>
<path d="M125.305 108.233C125.099 108.233 124.896 108.181 124.711 108.081C124.527 107.981 124.366 107.835 124.242 107.654L103.056 76.9431C102.951 76.79 102.874 76.6157 102.829 76.4299C102.785 76.2441 102.775 76.0506 102.799 75.8604C102.822 75.6702 102.88 75.487 102.969 75.3213C103.057 75.1556 103.174 75.0107 103.313 74.8947L106.434 72.2977C106.574 72.1817 106.732 72.0971 106.901 72.0485C107.071 71.9999 107.247 71.9885 107.42 72.0147C107.593 72.0409 107.76 72.1044 107.911 72.2014C108.062 72.2985 108.194 72.4272 108.299 72.5803L129.485 103.292C129.59 103.445 129.667 103.619 129.712 103.805C129.756 103.99 129.766 104.184 129.742 104.374C129.719 104.564 129.661 104.748 129.572 104.913C129.484 105.079 129.367 105.224 129.228 105.34L126.107 107.937C125.876 108.129 125.594 108.233 125.305 108.233Z" fill="#7E171B"/>
<path d="M116.824 84.3691L111.457 88.8359L115.523 94.7314L120.891 90.2646L116.824 84.3691Z" fill="#3F3D56"/>
<path d="M89.2121 61.9029L87.377 69.4253L94.2259 71.4409L96.0611 63.9185L89.2121 61.9029Z" fill="#D0CDE1"/>
<path d="M91.3204 72.5657L84.1689 70.461L86.0852 62.6062L93.2366 64.7108L91.3204 72.5657ZM84.5525 70.2178L91.0989 72.1444L92.853 64.9541L86.3066 63.0275L84.5525 70.2178Z" fill="#2F2E41"/>
<path d="M61.1962 90.8229C61.3844 90.6249 61.5308 90.384 61.625 90.1171C61.7192 89.8503 61.7591 89.564 61.7417 89.2784C61.7243 88.9928 61.6501 88.7148 61.5243 88.4642C61.3985 88.2135 61.2242 87.9961 61.0137 87.8274L58.1377 62.3643L54.4219 63.5777L58.4335 88.3577C58.1989 88.765 58.1084 89.2526 58.1793 89.7282C58.2501 90.2037 58.4774 90.6342 58.8179 90.9381C59.1584 91.242 59.5887 91.3981 60.027 91.3769C60.4653 91.3556 60.8813 91.1585 61.1962 90.8229Z" fill="#FFB8B8"/>
<path d="M64.6406 115.161H66.8139L67.8484 105.954H64.6406V115.161Z" fill="#FFB8B8"/>
<path d="M71.0054 117.377H64.175V114.479H68.6078C69.2437 114.479 69.8535 114.756 70.3031 115.25C70.7528 115.744 71.0054 116.414 71.0054 117.112V117.377Z" fill="#2F2E41"/>
<path d="M49.6113 111.443L51.6484 112.275L55.5402 104.042L52.5339 102.813L49.6113 111.443Z" fill="#FFB8B8"/>
<path d="M54.8735 115.958L48.4717 113.342L49.3917 110.625L53.5464 112.323C54.1424 112.566 54.6259 113.06 54.8906 113.695C55.1552 114.33 55.1794 115.054 54.9577 115.709L54.8735 115.958Z" fill="#2F2E41"/>
<path d="M60.7416 55.7541C63.0112 55.7541 64.851 53.7334 64.851 51.2407C64.851 48.748 63.0112 46.7273 60.7416 46.7273C58.4721 46.7273 56.6323 48.748 56.6323 51.2407C56.6323 53.7334 58.4721 55.7541 60.7416 55.7541Z" fill="#FFB8B8"/>
<path d="M54.3142 62.8244C54.1855 58.6671 58.1636 55.7831 61.5106 57.7296C61.937 57.9776 66.3401 62.0863 66.5061 64.6378C66.672 67.1894 67.0039 71.3812 67.0039 71.3812L71.6501 109.472L61.6939 108.925L62.8963 97.8137L56.4248 109.113L48.585 106.374L58.2093 75.9376C58.2093 75.9376 54.5092 69.1245 54.3142 62.8244Z" fill="#2F2E41"/>
<path d="M54.3926 64.2716L55.0319 73.4001C55.0386 73.4954 55.0778 73.5845 55.1417 73.6494C55.2055 73.7144 55.2894 73.7505 55.3764 73.7505H58.1895C58.2463 73.7505 58.3023 73.7351 58.3524 73.7056C58.4025 73.6762 58.4453 73.6336 58.4768 73.5817C58.5084 73.5297 58.5278 73.4701 58.5333 73.4079C58.5388 73.3458 58.5303 73.2831 58.5085 73.2254L55.0562 64.0969C55.0246 64.0136 54.9671 63.9453 54.8939 63.9043C54.8206 63.8634 54.7365 63.8525 54.6566 63.8735C54.5767 63.8945 54.5062 63.9462 54.4578 64.0191C54.4094 64.0921 54.3863 64.1816 54.3926 64.2716Z" fill="#2F2E41"/>
<path d="M68.8388 89.241C69.0046 89.0202 69.1243 88.7621 69.1895 88.485C69.2546 88.2079 69.2637 87.9184 69.216 87.637C69.1683 87.3556 69.0649 87.0891 68.9133 86.8563C68.7617 86.6235 68.5655 86.4301 68.3384 86.2896L62.769 61.3711L59.208 63.0539L65.8324 87.1479C65.6428 87.5825 65.6049 88.0784 65.726 88.5416C65.847 89.0048 66.1186 89.4032 66.4891 89.6612C66.8597 89.9192 67.3036 90.0189 67.7367 89.9415C68.1697 89.864 68.5619 89.6148 68.8388 89.241Z" fill="#FFB8B8"/>
<path d="M59.7028 59.1702C59.7028 59.1702 58.5412 61.7218 59.7028 66.2781C60.8643 70.8345 61.694 74.6618 61.694 74.6618C61.694 74.6618 64.349 72.8393 65.5105 73.386C66.6721 73.9328 63.6731 61.24 63.6731 61.24C63.6731 61.24 61.8599 56.9832 59.7028 59.1702Z" fill="#2F2E41"/>
<path d="M61.706 51.9449C61.7615 51.0084 62.8372 50.9763 63.6916 50.9674C64.5461 50.9586 65.5676 50.9921 66.0511 50.2182C66.3706 49.7068 66.3095 48.9969 66.0456 48.4486C65.7816 47.9003 65.3474 47.4786 64.9203 47.0729C63.8175 46.0256 62.681 44.9865 61.357 44.3162C60.0331 43.6458 58.4815 43.3749 57.1085 43.913C55.4217 44.5741 53.1416 47.977 52.9447 49.9321C52.7478 51.8872 53.4592 53.8802 54.6583 55.3412C55.8575 56.8021 58.6021 56.2127 60.3294 56.7324C59.2793 55.1001 59.9714 52.1341 61.6536 51.3718L61.706 51.9449Z" fill="#2F2E41"/>
</g>
<path d="M285.036 30.6161L278.954 26.6125L275.331 33.3068L281.413 37.3104L285.036 30.6161Z" fill="#D0CDE1"/>
<path d="M273.021 34.6547L276.804 27.6645L283.154 31.845L279.371 38.8352L273.021 34.6547ZM276.912 28.1372L273.449 34.5358L279.263 38.3625L282.726 31.9639L276.912 28.1372Z" fill="#2F2E41"/>
<path d="M344.777 87.2134C353.184 87.2134 360 79.7277 360 70.4937C360 61.2596 353.184 53.7739 344.777 53.7739C336.37 53.7739 329.554 61.2596 329.554 70.4937C329.554 79.7277 336.37 87.2134 344.777 87.2134Z" fill="#E6E6E6"/>
<path d="M349.995 91.044L346.25 93.5926V76.3652L350.447 73.5085C350.794 73.2723 351.048 72.9016 351.158 72.4698C350.757 72.3856 350.342 72.47 349.995 72.7062L346.25 75.2548V68.5745C346.25 67.2822 346.106 65.9947 345.82 64.741C345.535 65.9947 345.391 67.2822 345.391 68.5745V79.478L339.866 75.7181C339.425 75.4179 338.915 75.2632 338.396 75.2725C338.619 75.787 338.973 76.2202 339.414 76.5204L345.391 80.5884V120H346.25V94.703L350.447 91.8463C350.794 91.6101 351.048 91.2394 351.158 90.8076C350.757 90.7234 350.342 90.8078 349.995 91.044Z" fill="#CCCCCC"/>
<defs>
<clipPath id="clip0_918_26636">
<rect width="134.177" height="118.784" fill="white"/>
</clipPath>
</defs>
</svg>
